<svg xmlns="http://www.w3.org/2000/svg" viewBox="0 0 32 32" width="32" height="32">
  <defs>
    <linearGradient id="mochiGrad" x1="0%" y1="0%" x2="0%" y2="100%">
      <stop offset="0%" style="stop-color:#FEFEFE"/>
      <stop offset="100%" style="stop-color:#F5F0E8"/>
    </linearGradient>
    
    <radialGradient id="blushGrad">
      <stop offset="0%" style="stop-color:#FFB5B5; stop-opacity:0.7"/>
      <stop offset="100%" style="stop-color:#FFB5B5; stop-opacity:0"/>
    </radialGradient>
  </defs>
  
  <!-- Body - same proportions as mochi-final -->
  <path d="M16 2.5 
           C25.5 2.5, 30.5 9, 30.5 17.5
           C30.5 25, 25 29.5, 16 29.5
           C7 29.5, 1.5 25, 1.5 17.5
           C1.5 9, 6.5 2.5, 16 2.5Z" 
        fill="url(#mochiGrad)" 
        stroke="#E0D8C8" 
        stroke-width="1"/>
  
  <!-- Left eye -->
  <ellipse cx="12" cy="16" rx="2" ry="2.4" fill="#3D3D3D"/>
  <ellipse cx="11.4" cy="15.2" rx="0.7" ry="0.9" fill="#FFFFFF"/>
  
  <!-- Right eye -->
  <ellipse cx="20" cy="16" rx="2" ry="2.4" fill="#3D3D3D"/>
  <ellipse cx="19.4" cy="15.2" rx="0.7" ry="0.9" fill="#FFFFFF"/>
  
  <!-- Smile -->
  <path d="M13.5 21 Q16 24, 18.5 21" fill="none" stroke="#3D3D3D" stroke-width="1.2" stroke-linecap="round"/>
  
  <!-- Blush -->
  <ellipse cx="7" cy="18.5" rx="3" ry="2" fill="url(#blushGrad)"/>
  <ellipse cx="25" cy="18.5" rx="3" ry="2" fill="url(#blushGrad)"/>
</svg>
